<svg xmlns="http://www.w3.org/2000/svg" viewBox="0 0 64 64" width="64" height="64" role="img" aria-label="Noah Second Brain">
  <defs>
    <linearGradient id="bmBg" x1="0.1" y1="0" x2="0.9" y2="1">
      <stop offset="0" stop-color="#16294a"/>
      <stop offset="0.55" stop-color="#0a1626"/>
      <stop offset="1" stop-color="#03070e"/>
    </linearGradient>
    <radialGradient id="bmNebula" cx="50%" cy="46%" r="55%">
      <stop offset="0" stop-color="#3aa8e0" stop-opacity="0.40"/>
      <stop offset="0.58" stop-color="#2f6fc4" stop-opacity="0.13"/>
      <stop offset="1" stop-color="#2f6fc4" stop-opacity="0"/>
    </radialGradient>
    <radialGradient id="bmCore" cx="50%" cy="50%" r="50%">
      <stop offset="0" stop-color="#ffffff"/>
      <stop offset="0.34" stop-color="#a9f0ff"/>
      <stop offset="0.7" stop-color="#43ddff" stop-opacity="0.5"/>
      <stop offset="1" stop-color="#43ddff" stop-opacity="0"/>
    </radialGradient>
    <linearGradient id="bmOrbit" x1="0" y1="0" x2="1" y2="0">
      <stop offset="0" stop-color="#43ddff" stop-opacity="0"/>
      <stop offset="0.3" stop-color="#7fe6ff" stop-opacity="0.6"/>
      <stop offset="0.72" stop-color="#a872ff" stop-opacity="0.5"/>
      <stop offset="1" stop-color="#a872ff" stop-opacity="0"/>
    </linearGradient>
  </defs>

  <rect width="64" height="64" rx="15" fill="url(#bmBg)"/>
  <rect width="64" height="64" rx="15" fill="url(#bmNebula)"/>

  <g fill="#cfeeff">
    <circle cx="7"  cy="12" r="0.9" opacity="0.55"/>
    <circle cx="57" cy="9"  r="0.8" opacity="0.45"/>
    <circle cx="59" cy="30" r="1.0" opacity="0.6"/>
    <circle cx="5"  cy="34" r="0.8" opacity="0.4"/>
    <circle cx="20" cy="6"  r="0.7" opacity="0.4"/>
    <circle cx="44" cy="58" r="0.9" opacity="0.5"/>
    <circle cx="9"  cy="55" r="0.7" opacity="0.4"/>
    <circle cx="52" cy="42" r="0.7" opacity="0.4"/>
  </g>

  <g fill="none" stroke="url(#bmOrbit)" stroke-width="1.15">
    <ellipse cx="32" cy="32" rx="24" ry="10" transform="rotate(-22 32 32)"/>
    <ellipse cx="32" cy="32" rx="23" ry="8.6" transform="rotate(46 32 32)"/>
    <ellipse cx="32" cy="32" rx="21" ry="20.5" opacity="0.35"/>
  </g>

  <g stroke="#6fd8f8" fill="none" stroke-linecap="round">
    <path d="M32 32 L13 15" stroke-opacity="0.6"  stroke-width="1.7"/>
    <path d="M32 32 L51 18" stroke-opacity="0.6"  stroke-width="1.7"/>
    <path d="M32 32 L11 39" stroke-opacity="0.55" stroke-width="1.6"/>
    <path d="M32 32 L50 46" stroke-opacity="0.6"  stroke-width="1.7"/>
    <path d="M32 32 L26 53" stroke-opacity="0.55" stroke-width="1.6"/>
    <path d="M32 32 L44 9"  stroke-opacity="0.34" stroke-width="1.2"/>
    <path d="M32 32 L56 33" stroke-opacity="0.34" stroke-width="1.2"/>
    <path d="M13 15 L44 9"  stroke-opacity="0.2"  stroke-width="1"/>
    <path d="M51 18 L56 33" stroke-opacity="0.2"  stroke-width="1"/>
    <path d="M11 39 L26 53" stroke-opacity="0.2"  stroke-width="1"/>
    <path d="M50 46 L56 33" stroke-opacity="0.2"  stroke-width="1"/>
  </g>

  <circle cx="32" cy="32" r="14"   fill="url(#bmCore)" opacity="0.58"/>
  <circle cx="32" cy="32" r="12.4" fill="none" stroke="#7ee8ff" stroke-opacity="0.3" stroke-width="0.9"/>
  <circle cx="32" cy="32" r="9.6"  fill="none" stroke="#8fecff" stroke-opacity="0.7" stroke-width="1.5"/>
  <circle cx="32" cy="32" r="6.2"  fill="#f4feff"/>
  <circle cx="30.1" cy="30.1" r="2" fill="#ffffff"/>

  <g stroke="#03070e" stroke-width="1.5">
    <circle cx="13" cy="15" r="4.9" fill="#43ddff"/>
    <circle cx="51" cy="18" r="4.5" fill="#a872ff"/>
    <circle cx="11" cy="39" r="4.3" fill="#5af2b6"/>
    <circle cx="50" cy="46" r="4.7" fill="#ffca6a"/>
    <circle cx="26" cy="53" r="4.1" fill="#ff6f91"/>
    <circle cx="44" cy="9"  r="2.9" fill="#7fe6ff"/>
    <circle cx="56" cy="33" r="2.7" fill="#c9a3ff"/>
  </g>

  <rect x="0.6" y="0.6" width="62.8" height="62.8" rx="14.4" fill="none" stroke="#7fd9ff" stroke-opacity="0.22" stroke-width="1.2"/>
</svg>
